<?xml version="1.0" standalone="no"?>
<!DOCTYPE svg PUBLIC "-//W3C//DTD SVG 20010904//EN"
 "http://www.w3.org/TR/2001/REC-SVG-20010904/DTD/svg10.dtd">
<svg version="1.0" xmlns="http://www.w3.org/2000/svg"
 width="300.000000pt" height="300.000000pt" viewBox="0 0 300.000000 300.000000"
 preserveAspectRatio="xMidYMid meet">
<metadata>
Created by potrace 1.11, written by Peter Selinger 2001-2013
</metadata>
<g transform="translate(0.000000,300.000000) scale(0.100000,-0.100000)"
fill="#000000" stroke="none">
<path d="M700 2131 l0 -60 75 -12 75 -12 0 -432 c0 -478 -1 -489 -63 -553 -49
-52 -83 -66 -162 -66 -85 -1 -131 14 -174 56 -38 37 -50 64 -60 128 l-6 45
-89 3 -89 3 5 -66 c17 -204 192 -327 450 -312 165 9 292 95 349 237 11 28 15
133 19 495 l5 459 35 7 c19 4 52 10 73 13 l37 7 0 59 0 60 -240 0 -240 0 0
-59z"/>
<path d="M1570 2126 l0 -65 54 -6 54 -7 60 -157 c32 -86 133 -353 223 -593
l164 -438 80 0 80 0 224 595 c204 543 226 595 246 595 12 0 37 3 54 6 31 6 31
7 31 70 l0 64 -210 0 -210 0 0 -65 0 -64 50 -7 c28 -4 53 -10 56 -15 3 -5 -64
-208 -149 -451 -85 -244 -158 -456 -162 -473 l-7 -30 -15 45 c-9 25 -83 237
-165 472 -82 236 -146 432 -143 438 3 5 17 10 29 10 13 0 38 3 55 6 31 6 31 7
31 70 l0 64 -215 0 -215 0 0 -64z"/>
</g>
</svg>
