<?xml version="1.0" ?><!DOCTYPE svg  PUBLIC '-//W3C//DTD SVG 1.1//EN'  'http://www.w3.org/Graphics/SVG/1.1/DTD/svg11.dtd'><svg enable-background="new 0 0 512 512" height="512px" id="Слой_1" version="1.1" viewBox="0 0 512 512" width="512px" xml:space="preserve" xmlns="http://www.w3.org/2000/svg" xmlns:xlink="http://www.w3.org/1999/xlink"><g id="xing_1_"><g><path d="M511.994,256c0,141.387-114.607,255.988-255.996,255.996C114.613,511.988,0.006,397.387,0.006,256    c0-141.381,114.607-255.988,255.992-255.996C397.387,0.012,511.994,114.619,511.994,256z" fill="#005D5E"/><path d="M391.074,124.393L270.326,253.477l-69.046-69.055l-19.288,19.289l26.39,86.521l-87.46,46.781    L293.186,509.27C416.941,491.254,511.994,384.754,511.994,256c0-3.672-0.117-7.32-0.281-10.961L391.074,124.393z" opacity="0.15"/></g><path d="M292.904,427.785l-68.07-122.201l103.163-181.191h63.077l-103.17,181.191l67.373,122.201   H292.904z M201.28,184.422h-63.132l35.391,60.859l-52.617,91.732h62.82l52.631-91.912L201.28,184.422z" fill="#F4F6F9" id="Xing_1_"/></g></svg>
